<mxfile host="65bd71144e">
    <diagram id="ZlCSPkyXfrRuoKHajT2d" name="ページ1">
        <mxGraphModel dx="1156" dy="420" grid="1" gridSize="10" guides="1" tooltips="1" connect="1" arrows="1" fold="1" page="1" pageScale="1" pageWidth="827" pageHeight="1169" math="0" shadow="0">
            <root>
                <mxCell id="0"/>
                <mxCell id="1" parent="0"/>
                <mxCell id="17" value="" style="html=1;align=right;verticalAlign=top;rounded=1;absoluteArcSize=1;arcSize=50;dashed=0;spacingTop=10;spacingRight=30;hachureGap=4;fontFamily=Architects Daughter;fontSource=https%3A%2F%2Ffonts.googleapis.com%2Fcss%3Ffamily%3DArchitects%2BDaughter;fontSize=16;fontColor=#FFCB6B;fillColor=#252525;strokeColor=none;" vertex="1" parent="1">
                    <mxGeometry x="160" y="180" width="450" height="180" as="geometry"/>
                </mxCell>
                <mxCell id="2" value="&lt;font face=&quot;Helvetica&quot; style=&quot;font-size: 32px;&quot;&gt;&lt;font color=&quot;#6b547c&quot; style=&quot;font-size: 32px;&quot;&gt;v-bind&lt;/font&gt;&lt;font color=&quot;#81ceed&quot; style=&quot;font-size: 32px;&quot;&gt;:&lt;/font&gt;&lt;font color=&quot;#6b547c&quot; style=&quot;font-size: 32px;&quot;&gt;value&lt;/font&gt;&lt;font color=&quot;#81ceed&quot; style=&quot;font-size: 32px;&quot;&gt;=&quot;&lt;/font&gt;&lt;font color=&quot;#878ca5&quot; style=&quot;font-size: 32px;&quot;&gt;state.value&lt;/font&gt;&lt;font color=&quot;#81ceed&quot; style=&quot;font-size: 32px;&quot;&gt;&quot;&lt;/font&gt;&lt;/font&gt;" style="text;html=1;align=center;verticalAlign=middle;resizable=0;points=[];autosize=1;strokeColor=none;fillColor=none;fontSize=32;fontFamily=Architects Daughter;sketch=1;hachureGap=4;jiggle=2;curveFitting=1;fontSource=https%3A%2F%2Ffonts.googleapis.com%2Fcss%3Ffamily%3DArchitects%2BDaughter;" vertex="1" parent="1">
                    <mxGeometry x="190" y="237.5" width="390" height="50" as="geometry"/>
                </mxCell>
                <mxCell id="3" value="" style="shape=crossbar;whiteSpace=wrap;html=1;rounded=1;sketch=1;hachureGap=4;jiggle=2;curveFitting=1;fontFamily=Helvetica;fontSize=20;fontColor=#878CA5;" vertex="1" parent="1">
                    <mxGeometry x="400" y="282.5" width="160" height="20" as="geometry"/>
                </mxCell>
                <mxCell id="4" value="" style="shape=crossbar;whiteSpace=wrap;html=1;rounded=1;sketch=1;hachureGap=4;jiggle=2;curveFitting=1;fontFamily=Helvetica;fontSize=20;fontColor=#878CA5;" vertex="1" parent="1">
                    <mxGeometry x="300" y="282.5" width="70" height="20" as="geometry"/>
                </mxCell>
                <mxCell id="5" value="" style="shape=crossbar;whiteSpace=wrap;html=1;rounded=1;sketch=1;hachureGap=4;jiggle=2;curveFitting=1;fontFamily=Helvetica;fontSize=20;fontColor=#878CA5;" vertex="1" parent="1">
                    <mxGeometry x="230" y="282.5" width="60" height="20" as="geometry"/>
                </mxCell>
                <mxCell id="14" value="&lt;font color=&quot;#ffcb6b&quot; data-font-src=&quot;https://fonts.googleapis.com/css?family=Architects+Daughter&quot; face=&quot;Architects Daughter&quot; style=&quot;font-size: 16px;&quot;&gt;name&lt;/font&gt;" style="text;html=1;align=center;verticalAlign=middle;resizable=0;points=[];autosize=1;strokeColor=none;fillColor=none;fontSize=32;fontFamily=Helvetica;fontColor=#878CA5;sketch=1;hachureGap=4;jiggle=2;curveFitting=1;fontSource=https%3A%2F%2Ffonts.googleapis.com%2Fcss%3Ffamily%3DArchitects%2BDaughter;" vertex="1" parent="1">
                    <mxGeometry x="230" y="280" width="60" height="50" as="geometry"/>
                </mxCell>
                <mxCell id="15" value="&lt;font color=&quot;#ffcb6b&quot; data-font-src=&quot;https://fonts.googleapis.com/css?family=Architects+Daughter&quot; face=&quot;Architects Daughter&quot; style=&quot;font-size: 16px;&quot;&gt;arg&lt;/font&gt;" style="text;html=1;align=center;verticalAlign=middle;resizable=0;points=[];autosize=1;strokeColor=none;fillColor=none;fontSize=32;fontFamily=Helvetica;fontColor=#878CA5;sketch=1;hachureGap=4;jiggle=2;curveFitting=1;fontSource=https%3A%2F%2Ffonts.googleapis.com%2Fcss%3Ffamily%3DArchitects%2BDaughter;" vertex="1" parent="1">
                    <mxGeometry x="310" y="280" width="50" height="50" as="geometry"/>
                </mxCell>
                <mxCell id="16" value="&lt;font color=&quot;#ffcb6b&quot; data-font-src=&quot;https://fonts.googleapis.com/css?family=Architects+Daughter&quot; face=&quot;Architects Daughter&quot; style=&quot;font-size: 16px;&quot;&gt;exp&lt;/font&gt;" style="text;html=1;align=center;verticalAlign=middle;resizable=0;points=[];autosize=1;strokeColor=none;fillColor=none;fontSize=32;fontFamily=Helvetica;fontColor=#878CA5;sketch=1;hachureGap=4;jiggle=2;curveFitting=1;fontSource=https%3A%2F%2Ffonts.googleapis.com%2Fcss%3Ffamily%3DArchitects%2BDaughter;" vertex="1" parent="1">
                    <mxGeometry x="449" y="280" width="50" height="50" as="geometry"/>
                </mxCell>
            </root>
        </mxGraphModel>
    </diagram>
</mxfile>